<svg width="20.000000" height="19.990570" viewBox="0 0 20 19.9906" fill="none" xmlns="http://www.w3.org/2000/svg" xmlns:xlink="http://www.w3.org/1999/xlink">
	<desc>
			Created with Pixso.
	</desc>
	<defs>
		<linearGradient x1="8.624246" y1="10.737335" x2="3.449811" y2="19.699549" id="paint_linear_580_3993_0" gradientUnits="userSpaceOnUse">
			<stop stop-color="#0052CC"/>
			<stop offset="0.920000" stop-color="#2684FF"/>
		</linearGradient>
	</defs>
	<path d="M5.92 9.23C5.83 9.11 5.69 9.04 5.54 9.02C5.4 9 5.24 9.04 5.12 9.13C5.05 9.18 5 9.25 4.96 9.33L0.06 19.14C-0.01 19.28 -0.02 19.44 0.03 19.58C0.07 19.73 0.18 19.85 0.32 19.92C0.4 19.96 0.49 19.99 0.58 19.99L7.41 19.99C7.52 19.99 7.62 19.96 7.72 19.9C7.81 19.84 7.89 19.76 7.93 19.66C9.41 16.62 8.51 11.99 5.92 9.23Z" fill="url(#paint_linear_580_3993_0)" fill-opacity="1.000000" fill-rule="nonzero"/>
	<path d="M9.52 0.31C8.3 2.19 7.59 4.36 7.46 6.6C7.33 8.83 7.78 11.07 8.77 13.08L12.06 19.66C12.11 19.76 12.18 19.84 12.28 19.9C12.37 19.95 12.47 19.99 12.58 19.99L19.41 19.99C19.49 19.99 19.56 19.97 19.63 19.94C19.7 19.91 19.77 19.87 19.82 19.81C19.88 19.76 19.92 19.7 19.95 19.62C19.98 19.55 20 19.48 20 19.4C20 19.31 19.97 19.22 19.93 19.14L10.52 0.31C10.48 0.22 10.4 0.14 10.32 0.08C10.23 0.02 10.13 0 10.02 0C9.92 0 9.81 0.02 9.73 0.08C9.64 0.14 9.57 0.22 9.52 0.31L9.52 0.31Z" fill="#2684FF" fill-opacity="1.000000" fill-rule="nonzero"/>
</svg>
