<svg width="20.000000" height="20.000000" viewBox="0 0 20 20" fill="none" xmlns="http://www.w3.org/2000/svg" xmlns:xlink="http://www.w3.org/1999/xlink">
	<desc>
			Created with Pixso.
	</desc>
	<defs>
		<clipPath id="clip580_3885">
			<rect rx="0.000000" width="19.500000" height="19.500000" transform="translate(0.250000 0.250000)" fill="white" fill-opacity="0"/>
		</clipPath>
	</defs>
	<rect rx="0.000000" width="19.500000" height="19.500000" transform="translate(0.250000 0.250000)" fill="#FFFFFF" fill-opacity="0"/>
	<g clip-path="url(#clip580_3885)">
		<path d="M18.18 0L1.81 0C0.81 0 0 0.81 0 1.81L0 18.18C0 19.18 0.81 20 1.81 20L18.18 20C19.18 20 20 19.18 20 18.18L20 1.81C20 0.81 19.18 0 18.18 0Z" fill="#DC395F" fill-opacity="1.000000" fill-rule="nonzero"/>
		<path d="M6.68 6.29C7.34 6.29 7.9 5.77 7.9 5.08C7.9 4.4 7.34 3.88 6.68 3.88C6.01 3.88 5.46 4.4 5.46 5.08C5.46 5.77 6.01 6.29 6.68 6.29ZM4.15 12.74C4.07 13.04 4.04 13.37 4.04 13.64C4.04 14.7 4.61 15.4 5.83 15.4C6.85 15.4 7.67 14.8 8.26 13.83L7.9 15.28L9.91 15.28L11.06 10.67C11.35 9.5 11.91 8.89 12.75 8.89C13.42 8.89 13.83 9.31 13.83 9.99C13.83 10.19 13.81 10.4 13.74 10.64L13.15 12.76C13.06 13.06 13.02 13.37 13.02 13.65C13.02 14.66 13.61 15.4 14.85 15.4C15.91 15.4 16.76 14.71 17.22 13.08L16.43 12.77C16.04 13.87 15.7 14.07 15.43 14.07C15.16 14.07 15.01 13.89 15.01 13.53C15.01 13.37 15.05 13.19 15.1 12.97L15.68 10.91C15.82 10.42 15.88 9.99 15.88 9.6C15.88 8.05 14.94 7.24 13.81 7.24C12.75 7.24 11.67 8.2 11.13 9.21L11.53 7.4L8.46 7.4L8.03 8.99L9.46 8.99L8.58 12.54C7.88 14.08 6.61 14.11 6.45 14.07C6.18 14.01 6.01 13.91 6.01 13.57C6.01 13.37 6.05 13.09 6.14 12.75L7.49 7.4L4.07 7.4L3.64 8.99L5.06 8.99L4.15 12.74Z" fill="#FFFFFF" fill-opacity="1.000000" fill-rule="nonzero"/>
	</g>
</svg>
